<svg height="480pt" viewBox="-48 0 480 480" width="480pt" xmlns="http://www.w3.org/2000/svg"><path d="m8.0625 472h368v-464h-288l-80 80zm0 0" fill="#ffb730"/><path d="m88.0625 88v-80l-80 80zm0 0" fill="#ffd991"/><path d="m247.777344 356.351562-11.714844-76.351562h8v-48h-64v48h8l-11.742188 76.351562c-1.0625 6.914063.941407 13.949219 5.496094 19.261719 4.550782 5.316407 11.195313 8.378907 18.191406 8.386719h24.054688c7.003906-.003906 13.652344-3.0625 18.210938-8.375 4.554687-5.316406 6.566406-12.355469 5.503906-19.273438zm0 0" fill="#f79d1e"/><path d="m227.808594 356.351562-11.746094-76.351562h8v-48h-64v48h8l-11.742188 76.351562c-1.066406 6.925782.949219 13.96875 5.511719 19.285157 4.566407 5.316406 11.226563 8.371093 18.230469 8.363281h24c7.007812.007812 13.667969-3.046875 18.230469-8.363281 4.566406-5.316407 6.578125-12.359375 5.515625-19.285157zm0 0" fill="#dedede"/><path d="m224.0625 48v-16h-24v-24h-16v24h-24v16h24v16h-24v16h24v16h-24v16h24v16h-24v16h24v16h-24v16h24v16h-24v16h24v48h16v-48h24v-16h-24v-16h24v-16h-24v-16h24v-16h-24v-16h24v-16h-24v-16h24v-16h-24v-16zm0 0" fill="#fd882f"/><path d="m184.0625 344h16v16h-16zm0 0" fill="#c7c7c7"/><path d="m8.0625 88h64v16h-64zm0 0" fill="#f79d1e"/><path d="m218.527344 296-2.464844-16h-48l-2.460938 16zm0 0" fill="#c7c7c7"/><path d="m184.0625 232h16v24h-16zm0 0" fill="#f79d1e"/><path d="m376.0625 0h-288c-.152344 0-.285156.078125-.429688.0898438-.746093.0351562-1.480468.1835942-2.183593.4296872-.234375.082031-.457031.144531-.671875.242188-.890625.382812-1.703125.925781-2.402344 1.597656l-80 80c-.671875.679687-1.210938 1.472656-1.597656 2.34375-.113282.25-.175782.496094-.265625.753906-.230469.660157-.367188 1.355469-.40625 2.054688 0 .175781-.105469.328125-.105469.503906v383.984375c0 4.417969 3.582031 8 8 8h368.0625c4.417969 0 8-3.582031 8-8v-464c0-4.417969-3.582031-8-8-8zm-176 240h16v32h-48v-32h16v16h16zm19.839844 117.601562c.703125 4.613282-.648438 9.300782-3.691406 12.835938-3.042969 3.539062-7.480469 5.570312-12.148438 5.5625h-24c-4.660156 0-9.089844-2.035156-12.128906-5.570312-3.039063-3.535157-4.386719-8.21875-3.6875-12.828126l10.683594-69.601562h34.269531zm-139.839844-330.289062v52.6875h-52.6875zm288 436.6875h-352v-368h72c4.417969 0 8-3.582031 8-8v-72h88v16h-24v16h24v16h-24v16h24v16h-24v16h24v16h-24v16h24v16h-24v16h24v16h-24v16h24v16h-24c-4.417969 0-8 3.582031-8 8v48c.03125 3.878906 2.878906 7.164062 6.714844 7.742188l-10.402344 67.394531c-1.417969 9.238281 1.269531 18.636719 7.363281 25.722656 6.09375 7.089844 14.980469 11.15625 24.324219 11.140625h24c9.339844 0 18.210938-4.074219 24.289062-11.160156 6.082032-7.085938 8.761719-16.476563 7.34375-25.703125l-10.398437-67.394531c3.859375-.554688 6.730469-3.84375 6.765625-7.742188v-48c0-4.417969-3.582031-8-8-8h-24v-16h24v-16h-24v-16h24v-16h-24v-16h24v-16h-24v-16h24v-16h-24v-16h24v-16h-24v-16h24v-16h-24v-16h168zm0 0"/><path d="m184.0625 344h16v16h-16zm0 0"/></svg>